<mxfile host="app.diagrams.net" modified="2022-06-22T09:34:50.878Z" agent="5.0 (Windows NT 10.0; Win64; x64) AppleWebKit/537.36 (KHTML, like Gecko) Chrome/102.0.0.0 Safari/537.36" etag="iCMvI0jFRIGYO_GI_9J7" version="20.0.2" type="github">
  <diagram id="iCiIMGtz47Bm3McQM8ht" name="Page-1">
    <mxGraphModel dx="782" dy="1637" grid="1" gridSize="10" guides="1" tooltips="1" connect="1" arrows="1" fold="1" page="1" pageScale="1" pageWidth="827" pageHeight="1169" math="0" shadow="0">
      <root>
        <mxCell id="0" />
        <mxCell id="1" parent="0" />
        <mxCell id="ypmpVtDbYCS1of7LJpTN-1" value="" style="aspect=fixed;fontFamily=Times New Roman;" vertex="1" parent="1">
          <mxGeometry x="465" y="150" width="130" height="130" as="geometry" />
        </mxCell>
        <mxCell id="ypmpVtDbYCS1of7LJpTN-2" style="edgeStyle=orthogonalEdgeStyle;rounded=0;orthogonalLoop=1;jettySize=auto;html=0;exitX=0.5;exitY=1;exitDx=0;exitDy=0;entryX=0;entryY=0.5;entryDx=0;entryDy=0;fontFamily=Times New Roman;fontSize=15;fontColor=#000000;" edge="1" parent="1" source="ypmpVtDbYCS1of7LJpTN-4" target="ypmpVtDbYCS1of7LJpTN-15">
          <mxGeometry relative="1" as="geometry" />
        </mxCell>
        <mxCell id="ypmpVtDbYCS1of7LJpTN-3" style="edgeStyle=orthogonalEdgeStyle;rounded=0;orthogonalLoop=1;jettySize=auto;html=0;exitX=0.25;exitY=1;exitDx=0;exitDy=0;fontFamily=Times New Roman;fontSize=15;fontColor=#000000;entryX=1;entryY=0.5;entryDx=0;entryDy=0;" edge="1" parent="1" source="ypmpVtDbYCS1of7LJpTN-4" target="ypmpVtDbYCS1of7LJpTN-51">
          <mxGeometry relative="1" as="geometry">
            <mxPoint x="464" y="340" as="targetPoint" />
          </mxGeometry>
        </mxCell>
        <mxCell id="ypmpVtDbYCS1of7LJpTN-4" value="" style="aspect=fixed;fontFamily=Times New Roman;" vertex="1" parent="1">
          <mxGeometry x="475" y="170" width="130" height="130" as="geometry" />
        </mxCell>
        <mxCell id="ypmpVtDbYCS1of7LJpTN-5" value="Document 1" style="rounded=0;shadow=0;glass=0;sketch=0;fontSize=13;strokeColor=#9673a6;fillColor=#e1d5e7;fontFamily=Times New Roman;" vertex="1" parent="1">
          <mxGeometry x="485" y="180" width="110" height="20" as="geometry" />
        </mxCell>
        <mxCell id="ypmpVtDbYCS1of7LJpTN-6" value="Document 2" style="rounded=0;shadow=0;glass=0;sketch=0;fontSize=13;strokeColor=#9673a6;fillColor=#e1d5e7;fontFamily=Times New Roman;" vertex="1" parent="1">
          <mxGeometry x="485" y="210" width="110" height="20" as="geometry" />
        </mxCell>
        <mxCell id="ypmpVtDbYCS1of7LJpTN-7" value="Document N" style="rounded=0;shadow=0;glass=0;sketch=0;fontSize=13;strokeColor=#9673a6;fillColor=#e1d5e7;fontFamily=Times New Roman;" vertex="1" parent="1">
          <mxGeometry x="485" y="265" width="110" height="20" as="geometry" />
        </mxCell>
        <mxCell id="ypmpVtDbYCS1of7LJpTN-8" value="..." style="rounded=0;shadow=0;glass=0;sketch=0;fontSize=15;strokeColor=none;fillColor=none;rotation=90;fontFamily=Times New Roman;" vertex="1" parent="1">
          <mxGeometry x="485" y="220" width="120" height="60" as="geometry" />
        </mxCell>
        <mxCell id="ypmpVtDbYCS1of7LJpTN-9" value="" style="rounded=0;shadow=0;glass=0;sketch=0;fontSize=15;strokeColor=default;fillColor=none;fontFamily=Times New Roman;" vertex="1" parent="1">
          <mxGeometry x="635" y="170" width="80" height="130" as="geometry" />
        </mxCell>
        <mxCell id="ypmpVtDbYCS1of7LJpTN-10" value="Keyword 1" style="rounded=0;shadow=0;glass=0;sketch=0;fontSize=13;strokeColor=#b85450;fillColor=#f8cecc;fontFamily=Times New Roman;" vertex="1" parent="1">
          <mxGeometry x="640" y="180" width="70" height="20" as="geometry" />
        </mxCell>
        <mxCell id="ypmpVtDbYCS1of7LJpTN-11" value="Keyword 2" style="rounded=0;shadow=0;glass=0;sketch=0;fontSize=13;strokeColor=#b85450;fillColor=#f8cecc;fontFamily=Times New Roman;" vertex="1" parent="1">
          <mxGeometry x="640" y="210" width="70" height="20" as="geometry" />
        </mxCell>
        <mxCell id="ypmpVtDbYCS1of7LJpTN-12" value="Keyword N" style="rounded=0;shadow=0;glass=0;sketch=0;fontSize=13;strokeColor=#b85450;fillColor=#f8cecc;fontFamily=Times New Roman;" vertex="1" parent="1">
          <mxGeometry x="640" y="270" width="70" height="20" as="geometry" />
        </mxCell>
        <mxCell id="ypmpVtDbYCS1of7LJpTN-13" value="..." style="rounded=0;shadow=0;glass=0;sketch=0;fontSize=15;strokeColor=none;fillColor=none;rotation=90;fontFamily=Times New Roman;" vertex="1" parent="1">
          <mxGeometry x="619" y="220" width="120" height="60" as="geometry" />
        </mxCell>
        <mxCell id="ypmpVtDbYCS1of7LJpTN-14" style="edgeStyle=orthogonalEdgeStyle;rounded=0;orthogonalLoop=1;jettySize=auto;html=0;exitX=1;exitY=0.5;exitDx=0;exitDy=0;fontFamily=Times New Roman;fontSize=15;fontColor=#000000;entryX=0.5;entryY=1;entryDx=0;entryDy=0;" edge="1" parent="1" source="ypmpVtDbYCS1of7LJpTN-15" target="ypmpVtDbYCS1of7LJpTN-9">
          <mxGeometry relative="1" as="geometry">
            <mxPoint x="685" y="330" as="targetPoint" />
          </mxGeometry>
        </mxCell>
        <mxCell id="ypmpVtDbYCS1of7LJpTN-15" value="Keyword &#xa;Extractor" style="rounded=1;shadow=0;glass=0;sketch=0;fontSize=13;strokeColor=#6c8ebf;fillColor=#dae8fc;fontFamily=Times New Roman;" vertex="1" parent="1">
          <mxGeometry x="565" y="320" width="80" height="40" as="geometry" />
        </mxCell>
        <mxCell id="ypmpVtDbYCS1of7LJpTN-16" value="Encoder" style="rounded=1;shadow=0;glass=0;sketch=0;fontSize=15;strokeColor=#6c8ebf;fillColor=#dae8fc;fontFamily=Times New Roman;" vertex="1" parent="1">
          <mxGeometry x="414" y="-60" width="290" height="100" as="geometry" />
        </mxCell>
        <mxCell id="ypmpVtDbYCS1of7LJpTN-17" value="Document" style="rounded=0;shadow=0;glass=0;sketch=0;fontSize=15;strokeColor=#9673a6;fillColor=#e1d5e7;fontFamily=Times New Roman;" vertex="1" parent="1">
          <mxGeometry x="350" y="80" width="100" height="20" as="geometry" />
        </mxCell>
        <mxCell id="ypmpVtDbYCS1of7LJpTN-18" value="CLS" style="rounded=0;shadow=0;glass=0;sketch=0;fontSize=15;strokeColor=#666666;fillColor=#f5f5f5;fontColor=#333333;fontFamily=Times New Roman;" vertex="1" parent="1">
          <mxGeometry x="300" y="80" width="40" height="20" as="geometry" />
        </mxCell>
        <mxCell id="ypmpVtDbYCS1of7LJpTN-19" value="SEP" style="rounded=0;shadow=0;glass=0;sketch=0;fontSize=15;strokeColor=#666666;fillColor=#f5f5f5;fontColor=#333333;fontFamily=Times New Roman;" vertex="1" parent="1">
          <mxGeometry x="455" y="80" width="30" height="20" as="geometry" />
        </mxCell>
        <mxCell id="ypmpVtDbYCS1of7LJpTN-20" value="Keyword" style="rounded=0;shadow=0;glass=0;sketch=0;fontSize=15;strokeColor=#b85450;fillColor=#f8cecc;fontFamily=Times New Roman;" vertex="1" parent="1">
          <mxGeometry x="660" y="80" width="70" height="20" as="geometry" />
        </mxCell>
        <mxCell id="ypmpVtDbYCS1of7LJpTN-21" value="Decoder" style="rounded=1;shadow=0;glass=0;sketch=0;fontSize=15;strokeColor=#6c8ebf;fillColor=#dae8fc;fontFamily=Times New Roman;" vertex="1" parent="1">
          <mxGeometry x="810" y="-60" width="290" height="100" as="geometry" />
        </mxCell>
        <mxCell id="ypmpVtDbYCS1of7LJpTN-22" value="CLS" style="rounded=0;shadow=0;glass=0;sketch=0;fontSize=15;strokeColor=#666666;fillColor=#f5f5f5;fontColor=#333333;fontFamily=Times New Roman;" vertex="1" parent="1">
          <mxGeometry x="817.5" y="80" width="40" height="20" as="geometry" />
        </mxCell>
        <mxCell id="ypmpVtDbYCS1of7LJpTN-23" value="Ground Truth Summary" style="rounded=0;shadow=0;glass=0;sketch=0;fontSize=15;strokeColor=#9673a6;fillColor=#e1d5e7;fontFamily=Times New Roman;" vertex="1" parent="1">
          <mxGeometry x="867.5" y="80" width="220" height="20" as="geometry" />
        </mxCell>
        <mxCell id="ypmpVtDbYCS1of7LJpTN-24" value="" style="rounded=0;shadow=0;glass=0;sketch=0;fontSize=15;strokeColor=#2D7600;fillColor=#60a917;rotation=90;fontColor=#ffffff;fontFamily=Times New Roman;" vertex="1" parent="1">
          <mxGeometry x="810" y="-120" width="55" height="20" as="geometry" />
        </mxCell>
        <mxCell id="ypmpVtDbYCS1of7LJpTN-25" value="Linear Head" style="fontSize=15;fillColor=#dae8fc;rounded=1;shadow=0;glass=0;sketch=0;strokeColor=#6c8ebf;fontFamily=Times New Roman;" vertex="1" parent="1">
          <mxGeometry x="810" y="-207.5" width="290" height="60" as="geometry" />
        </mxCell>
        <mxCell id="ypmpVtDbYCS1of7LJpTN-26" style="edgeStyle=orthogonalEdgeStyle;rounded=0;orthogonalLoop=1;jettySize=auto;html=0;entryX=0;entryY=0.5;entryDx=0;entryDy=0;fontFamily=Times New Roman;fontSize=15;fontColor=#000000;" edge="1" parent="1" source="ypmpVtDbYCS1of7LJpTN-51" target="ypmpVtDbYCS1of7LJpTN-1">
          <mxGeometry relative="1" as="geometry">
            <mxPoint x="439" y="325" as="sourcePoint" />
          </mxGeometry>
        </mxCell>
        <mxCell id="ypmpVtDbYCS1of7LJpTN-27" value="" style="edgeStyle=orthogonalEdgeStyle;rounded=0;orthogonalLoop=1;jettySize=auto;exitX=1;exitY=0.5;exitDx=0;exitDy=0;entryX=0;entryY=0.5;entryDx=0;entryDy=0;fontSize=13;fontFamily=Times New Roman;" edge="1" parent="1" source="ypmpVtDbYCS1of7LJpTN-32" target="ypmpVtDbYCS1of7LJpTN-35">
          <mxGeometry relative="1" as="geometry" />
        </mxCell>
        <mxCell id="ypmpVtDbYCS1of7LJpTN-28" value="" style="rounded=0;orthogonalLoop=1;jettySize=auto;exitX=1;exitY=0.5;exitDx=0;exitDy=0;entryX=0;entryY=0.5;entryDx=0;entryDy=0;dashed=1;fontSize=13;fontFamily=Times New Roman;" edge="1" parent="1" source="ypmpVtDbYCS1of7LJpTN-32" target="ypmpVtDbYCS1of7LJpTN-36">
          <mxGeometry relative="1" as="geometry" />
        </mxCell>
        <mxCell id="ypmpVtDbYCS1of7LJpTN-29" value="neg" style="edgeLabel;html=1;align=center;verticalAlign=middle;resizable=0;points=[];fontSize=15;fontFamily=Times New Roman;fontColor=#000000;" vertex="1" connectable="0" parent="ypmpVtDbYCS1of7LJpTN-28">
          <mxGeometry x="0.3034" y="6" relative="1" as="geometry">
            <mxPoint x="-13" y="-2" as="offset" />
          </mxGeometry>
        </mxCell>
        <mxCell id="ypmpVtDbYCS1of7LJpTN-30" value="" style="edgeStyle=none;rounded=0;orthogonalLoop=1;jettySize=auto;exitX=1;exitY=0.5;exitDx=0;exitDy=0;entryX=0;entryY=0.75;entryDx=0;entryDy=0;dashed=1;fontSize=13;fontFamily=Times New Roman;" edge="1" parent="1" source="ypmpVtDbYCS1of7LJpTN-32" target="ypmpVtDbYCS1of7LJpTN-37">
          <mxGeometry relative="1" as="geometry" />
        </mxCell>
        <mxCell id="ypmpVtDbYCS1of7LJpTN-31" value="neg" style="edgeLabel;html=1;align=center;verticalAlign=middle;resizable=0;points=[];fontSize=15;fontFamily=Times New Roman;fontColor=#000000;" vertex="1" connectable="0" parent="ypmpVtDbYCS1of7LJpTN-30">
          <mxGeometry x="0.2538" y="9" relative="1" as="geometry">
            <mxPoint x="-14" y="-1" as="offset" />
          </mxGeometry>
        </mxCell>
        <mxCell id="ypmpVtDbYCS1of7LJpTN-32" value="Emb 1" style="rounded=0;shadow=0;glass=0;sketch=0;fontSize=13;strokeColor=#2D7600;fillColor=#B9E0A5;fontColor=#000000;labelBorderColor=none;labelBackgroundColor=none;fontFamily=Times New Roman;" vertex="1" parent="1">
          <mxGeometry x="414" y="-220" width="106" height="20" as="geometry" />
        </mxCell>
        <mxCell id="ypmpVtDbYCS1of7LJpTN-33" value="Emb 2" style="rounded=0;shadow=0;glass=0;sketch=0;fontSize=13;strokeColor=#2D7600;fillColor=#B9E0A5;fontColor=#000000;fontFamily=Times New Roman;" vertex="1" parent="1">
          <mxGeometry x="414" y="-190" width="106" height="20" as="geometry" />
        </mxCell>
        <mxCell id="ypmpVtDbYCS1of7LJpTN-34" value="Emb N" style="rounded=0;shadow=0;glass=0;sketch=0;fontSize=13;strokeColor=#2D7600;fillColor=#B9E0A5;fontColor=#000000;fontFamily=Times New Roman;" vertex="1" parent="1">
          <mxGeometry x="414" y="-150" width="106" height="20" as="geometry" />
        </mxCell>
        <mxCell id="ypmpVtDbYCS1of7LJpTN-35" value="Aug Emb 1" style="rounded=0;shadow=0;glass=0;sketch=0;fontSize=13;strokeColor=#2D7600;fillColor=#60a917;fontColor=#000000;fontFamily=Times New Roman;" vertex="1" parent="1">
          <mxGeometry x="594" y="-220" width="106" height="20" as="geometry" />
        </mxCell>
        <mxCell id="ypmpVtDbYCS1of7LJpTN-36" value="Aug Emb 2" style="rounded=0;shadow=0;glass=0;sketch=0;fontSize=13;strokeColor=#2D7600;fillColor=#60a917;fontColor=#000000;fontFamily=Times New Roman;" vertex="1" parent="1">
          <mxGeometry x="594" y="-190" width="106" height="20" as="geometry" />
        </mxCell>
        <mxCell id="ypmpVtDbYCS1of7LJpTN-37" value="Aug Emb N" style="rounded=0;shadow=0;glass=0;sketch=0;fontSize=13;strokeColor=#2D7600;fillColor=#60a917;fontColor=#000000;fontFamily=Times New Roman;" vertex="1" parent="1">
          <mxGeometry x="594" y="-150" width="106" height="20" as="geometry" />
        </mxCell>
        <mxCell id="ypmpVtDbYCS1of7LJpTN-38" value="Seqence to Sequence Task" style="rounded=1;shadow=0;glass=0;sketch=0;fontSize=15;strokeColor=#d6b656;fillColor=#fff2cc;fontFamily=Times New Roman;" vertex="1" parent="1">
          <mxGeometry x="810" y="-310" width="290" height="40" as="geometry" />
        </mxCell>
        <mxCell id="ypmpVtDbYCS1of7LJpTN-39" value="Contrastive Learning Task" style="rounded=1;shadow=0;glass=0;sketch=0;fontSize=15;strokeColor=#d6b656;fillColor=#fff2cc;fontFamily=Times New Roman;" vertex="1" parent="1">
          <mxGeometry x="414" y="-310" width="290" height="40" as="geometry" />
        </mxCell>
        <mxCell id="ypmpVtDbYCS1of7LJpTN-40" value="" style="rounded=1;shadow=0;glass=0;sketch=0;fontSize=13;strokeColor=default;fillColor=none;labelBackgroundColor=none;dashed=1;fontFamily=Times New Roman;" vertex="1" parent="1">
          <mxGeometry x="394" y="-230" width="330" height="110" as="geometry" />
        </mxCell>
        <mxCell id="ypmpVtDbYCS1of7LJpTN-41" value="" style="rounded=0;shadow=0;glass=0;sketch=0;fontSize=15;strokeColor=#82b366;fillColor=#d5e8d4;rotation=90;fontFamily=Times New Roman;" vertex="1" parent="1">
          <mxGeometry x="867.5" y="-110" width="55" height="20" as="geometry" />
        </mxCell>
        <mxCell id="ypmpVtDbYCS1of7LJpTN-42" value="" style="rounded=0;shadow=0;glass=0;sketch=0;fontSize=15;strokeColor=#82b366;fillColor=#d5e8d4;rotation=90;fontFamily=Times New Roman;" vertex="1" parent="1">
          <mxGeometry x="922.5" y="-110" width="55" height="20" as="geometry" />
        </mxCell>
        <mxCell id="ypmpVtDbYCS1of7LJpTN-43" value="" style="rounded=0;shadow=0;glass=0;sketch=0;fontSize=15;strokeColor=#82b366;fillColor=#d5e8d4;rotation=90;fontFamily=Times New Roman;" vertex="1" parent="1">
          <mxGeometry x="1047.5" y="-110" width="55" height="20" as="geometry" />
        </mxCell>
        <mxCell id="ypmpVtDbYCS1of7LJpTN-44" value="" style="shape=flexArrow;endArrow=classic;rounded=0;fontSize=20;fillColor=default;fontFamily=Times New Roman;" edge="1" parent="1">
          <mxGeometry width="50" height="50" relative="1" as="geometry">
            <mxPoint x="740" y="-10.5" as="sourcePoint" />
            <mxPoint x="780" y="-10.5" as="targetPoint" />
          </mxGeometry>
        </mxCell>
        <mxCell id="ypmpVtDbYCS1of7LJpTN-45" value="The summary related to " style="rounded=0;shadow=0;glass=0;sketch=0;fontSize=15;fillColor=#f5f5f5;strokeColor=#666666;fontColor=#333333;fontFamily=Times New Roman;" vertex="1" parent="1">
          <mxGeometry x="490" y="80" width="170" height="20" as="geometry" />
        </mxCell>
        <mxCell id="ypmpVtDbYCS1of7LJpTN-46" value="is:" style="rounded=0;shadow=0;glass=0;sketch=0;fontSize=15;fillColor=#f5f5f5;strokeColor=#666666;fontColor=#333333;fontFamily=Times New Roman;" vertex="1" parent="1">
          <mxGeometry x="730" y="80" width="38" height="20" as="geometry" />
        </mxCell>
        <mxCell id="ypmpVtDbYCS1of7LJpTN-47" value="" style="rounded=1;fillColor=none;dashed=1;fontFamily=Times New Roman;" vertex="1" parent="1">
          <mxGeometry x="365" y="130" width="390" height="250" as="geometry" />
        </mxCell>
        <mxCell id="ypmpVtDbYCS1of7LJpTN-48" style="edgeStyle=orthogonalEdgeStyle;rounded=0;orthogonalLoop=1;jettySize=auto;html=0;exitX=0.5;exitY=1;exitDx=0;exitDy=0;entryX=0.5;entryY=1;entryDx=0;entryDy=0;fontFamily=Times New Roman;" edge="1" parent="1" source="ypmpVtDbYCS1of7LJpTN-49" target="ypmpVtDbYCS1of7LJpTN-40">
          <mxGeometry relative="1" as="geometry" />
        </mxCell>
        <mxCell id="ypmpVtDbYCS1of7LJpTN-49" value="" style="rounded=0;shadow=0;glass=0;sketch=0;fontSize=15;strokeColor=#2D7600;fillColor=#B9E0A5;rotation=90;fontColor=#ffffff;fontFamily=Times New Roman;" vertex="1" parent="1">
          <mxGeometry x="802.5" y="-110" width="55" height="20" as="geometry" />
        </mxCell>
        <mxCell id="ypmpVtDbYCS1of7LJpTN-50" value="pos" style="text;html=1;align=center;verticalAlign=middle;resizable=0;points=[];autosize=1;strokeColor=none;fillColor=none;fontSize=15;fontFamily=Times New Roman;fontColor=#000000;" vertex="1" parent="1">
          <mxGeometry x="540" y="-230" width="40" height="20" as="geometry" />
        </mxCell>
        <mxCell id="ypmpVtDbYCS1of7LJpTN-51" value="Data&#xa;Augument" style="rounded=1;shadow=0;glass=0;sketch=0;fontSize=13;strokeColor=#6c8ebf;fillColor=#dae8fc;fontFamily=Times New Roman;" vertex="1" parent="1">
          <mxGeometry x="405" y="320" width="80" height="40" as="geometry" />
        </mxCell>
        <mxCell id="ypmpVtDbYCS1of7LJpTN-52" value="&lt;font style=&quot;font-size: 30px;&quot;&gt;...&lt;/font&gt;" style="text;html=1;align=center;verticalAlign=middle;resizable=0;points=[];autosize=1;strokeColor=none;fillColor=none;fontSize=13;fontFamily=Times New Roman;fontColor=#000000;" vertex="1" parent="1">
          <mxGeometry x="990" y="-125" width="40" height="30" as="geometry" />
        </mxCell>
        <mxCell id="ypmpVtDbYCS1of7LJpTN-53" value="..." style="rounded=0;dashed=1;labelBackgroundColor=none;labelBorderColor=none;fontFamily=Times New Roman;fontSize=13;fontColor=#000000;fillColor=none;rotation=90;strokeColor=none;" vertex="1" parent="1">
          <mxGeometry x="414" y="-187.5" width="120" height="60" as="geometry" />
        </mxCell>
        <mxCell id="ypmpVtDbYCS1of7LJpTN-54" value="..." style="rounded=0;dashed=1;labelBackgroundColor=none;labelBorderColor=none;fontFamily=Times New Roman;fontSize=13;fontColor=#000000;fillColor=none;rotation=90;strokeColor=none;" vertex="1" parent="1">
          <mxGeometry x="590" y="-187.5" width="120" height="60" as="geometry" />
        </mxCell>
      </root>
    </mxGraphModel>
  </diagram>
</mxfile>
